<svg width="64" height="64" viewBox="0 0 64 64" fill="none" xmlns="http://www.w3.org/2000/svg">
  <path d="M32 58C46.3594 58 58 46.3594 58 32C58 17.6406 46.3594 6 32 6C17.6406 6 6 17.6406 6 32C6 46.3594 17.6406 58 32 58Z" fill="#3F2A2D"/>
  <path d="M18 30C18 22.268 24.268 16 32 16C39.732 16 46 22.268 46 30V42C46 45.314 43.314 48 40 48H24C20.686 48 18 45.314 18 42V30Z" fill="#F97316"/>
  <path d="M23 31C25 28.5 28 28.5 30 31" stroke="#3F2A2D" stroke-width="4" stroke-linecap="round"/>
  <path d="M34 31C36 28.5 39 28.5 41 31" stroke="#3F2A2D" stroke-width="4" stroke-linecap="round"/>
  <path d="M26 40H38" stroke="#3F2A2D" stroke-width="4" stroke-linecap="round"/>
  <path d="M18 14L11 10" stroke="#FBBF24" stroke-width="5" stroke-linecap="round"/>
  <path d="M46 14L53 10" stroke="#FBBF24" stroke-width="5" stroke-linecap="round"/>
</svg>
