<svg width="512" height="512" viewBox="0 0 512 512" fill="none" xmlns="http://www.w3.org/2000/svg"><rect width="512" height="512" rx="72" fill="#1F0E10"/><path d="M116 306C116 222 174 158 260 158C350 158 410 226 410 306C410 388 346 430 256 430C166 430 116 388 116 306Z" fill="#8E2B2B"/><path d="M160 174L106 82L232 154Z" fill="#D45731"/><path d="M352 174L406 82L280 154Z" fill="#D45731"/><circle cx="214" cy="286" r="22" fill="#FFCA52"/><circle cx="306" cy="286" r="22" fill="#FFCA52"/><path d="M210 354H302" stroke="#260B0B" stroke-width="20" stroke-linecap="round"/><path d="M188 360L206 394M306 360L324 394" stroke="#F1D6B0" stroke-width="12" stroke-linecap="round"/></svg>
